<svg id="Layer_1" data-name="Layer 1" xmlns="http://www.w3.org/2000/svg" viewBox="0 0 28 28.12"><defs><style>.cls-1{fill:#fff;stroke:#000;stroke-miterlimit:10;}</style></defs><path class="cls-1" d="M2.94,12.66h0a2.78,2.78,0,0,1-.13,1,14.86,14.86,0,0,0,0,2.83c.17,3.06-.15,2.8.1,3.6a10.69,10.69,0,0,0,2.2,3,16,16,0,0,0,2.53,2.44,11,11,0,0,0,1.57,1,10,10,0,0,0,4.56,1.05c1.93,0,4.22.12,6.1-1.32.73-.56,1.29-1.53,2.36-3.45,1.75-3.11,2.62-4.66,2.9-6.28.37-2.2,0-3.92-.62-6.46-.45-1.95-.72-3-1.66-4.15A8,8,0,0,0,19,3.64a17.85,17.85,0,0,0-7-.81C8.09,3,6.13,3.15,4.55,4.64,1.94,7.09,2.48,11.25,2.6,12"/><path d="M28,14A14,14,0,1,0,9.67,27.31c.77-.23.81-.7.81-.7V24a14.46,14.46,0,0,1-2.27.16A3.21,3.21,0,0,1,5.52,22c-.68-1.74-1.95-1.91-1.95-2.22a.37.37,0,0,1,.28-.37h.92c.76,0,1.52,1.26,2,2a3.1,3.1,0,0,0,2.42.92A4.3,4.3,0,0,0,10.52,22a4.64,4.64,0,0,1,.79-1.89c-6.24-.56-6.4-5.22-6.4-7A6.72,6.72,0,0,1,6.4,9.46a5.14,5.14,0,0,1,.18-3.71,7.74,7.74,0,0,1,3.9,1.48A13.55,13.55,0,0,1,14,6.68a13.55,13.55,0,0,1,3.52.55,7.74,7.74,0,0,1,3.9-1.48,5.14,5.14,0,0,1,.18,3.71,6.72,6.72,0,0,1,1.49,3.61c0,1.83-.16,6.49-6.4,7.05a4.42,4.42,0,0,1,.83,2.41v4.08s0,.47.81.7A14,14,0,0,0,28,14Z"/></svg>