<svg id="SvgjsSvg1018" width="288" height="288" xmlns="http://www.w3.org/2000/svg" version="1.1" xmlns:xlink="http://www.w3.org/1999/xlink" xmlns:svgjs="http://svgjs.com/svgjs"><rect id="SvgjsRect1031" width="288" height="288" rx="40" ry="40" transform="matrix(0.9999999999999999,0,0,0.9999999999999999,2.842170943040401e-14,2.842170943040401e-14)" fill="#ffffff"></rect><defs id="SvgjsDefs1019"></defs><g id="SvgjsG1020" transform="matrix(0.9,0,0,0.9,14.400247573852539,14.399123346246768)"><svg xmlns="http://www.w3.org/2000/svg" enable-background="new 0 0 24 24" viewBox="0 0 24 24" width="288" height="288"><path d="M23.076,10.327l-9.147-9.51c-0.559-0.53-1.295-0.82-2.058-0.817c-0.745-0.011-1.464,0.282-1.993,0.817L1.053,10c-3.343,3.394,2.164,3.111,4.155,4.394c0.922,0.612-2.955,1.394-2.164,2.199c0.771,0.806,4.65,1.546,5.422,2.33c0.771,0.804-1.564,1.653-0.793,2.457c0.75,0.806,2.549,0.043,2.87,1.871c0.235,1.35,3.3,0.677,4.672-0.478c0.855-0.74-1.478-0.74-0.708-1.545c1.93-1.98,3.643-0.889,4.35-2.719c0.387-0.979-2.913-1.676-2.034-2.307C18.922,14.701,26.633,13.939,23.076,10.327L23.076,10.327z M17.011,6.278l-1.733-1.435l-0.343,2.11l-1.435-0.785l-2.336,1.502l-0.77-3.155L9.151,7.257L6.043,7.235c-0.6,0-0.514-0.631,0.107-1.262c1.221-1.372,3.6-3.699,4.35-4.504c0.385-0.402,0.915-0.598,1.445-0.593l0.001-0.003c0.529,0.003,1.06,0.205,1.444,0.594l3.491,3.614C17.205,5.407,17.205,6.083,17.011,6.278L17.011,6.278z" fill="#000000" class="color000 svgShape"></path><path fill="#000000" d="M12,0.003v0.871c0.511,0.016,1.019,0.217,1.391,0.593l3.491,3.614c0.323,0.326,0.323,1.002,0.129,1.197l-1.733-1.435l-0.343,2.11l-1.435-0.785L12,7.133v16.864c1.052-0.045,2.418-0.553,3.214-1.223c0.855-0.74-1.478-0.74-0.708-1.545c1.93-1.98,3.643-0.889,4.35-2.719c0.387-0.979-2.913-1.676-2.034-2.307c2.1-1.501,9.811-2.263,6.255-5.875l-9.147-9.51C13.401,0.317,12.716,0.031,12,0.003L12,0.003z" class="color212121 svgShape"></path><path d="M5.123,20.924c0.791,0.697,1.992-0.153,2.377-1.131c-0.24-0.321-0.685-0.433-1.143-0.405H6.356v-0.001C5.348,19.447,4.268,20.191,5.123,20.924L5.123,20.924z" fill="#000000" class="color000 svgShape"></path><path fill="#000000" d="M6.492,19.384c-0.045,0-0.09,0.001-0.135,0.004H6.356v-0.001c-0.066,0.004-0.133,0.011-0.199,0.021v1.712c0.566-0.177,1.108-0.728,1.344-1.327C7.283,19.504,6.901,19.384,6.492,19.384L6.492,19.384z" class="color212121 svgShape"></path><path d="M23.313,18.4c-0.142-0.697-0.87-1.019-1.611-0.991v0.002h-0.001c-0.74,0.026-1.496,0.402-1.689,1.097C20.012,18.965,23.504,19.227,23.313,18.4L23.313,18.4z" fill="#000000" class="color000 svgShape"></path><path fill="#000000" d="M21.791,17.408c-0.029,0-0.059,0.001-0.088,0.002v0.002h-0.001c-0.012,0-0.024,0.001-0.035,0.001v1.521c0.073,0.002,0.145,0.004,0.217,0.004c0.794,0,1.52-0.148,1.43-0.537C23.177,17.73,22.5,17.408,21.791,17.408L21.791,17.408z" class="color212121 svgShape"></path><path d="M20.718,20.706c0.259-0.176-0.02-1.021-1.134-1.241C18.599,20.38,19.754,21.338,20.718,20.706L20.718,20.706z" fill="#000000" class="color000 svgShape"></path><path fill="#000000" d="M20.008,19.593v1.315c0.019,0.001,0.039,0.002,0.058,0.002c0.209,0,0.436-0.062,0.652-0.204C20.94,20.555,20.766,19.911,20.008,19.593L20.008,19.593z" class="color212121 svgShape"></path></svg></g></svg>