<svg xmlns="http://www.w3.org/2000/svg" viewBox="0 0 73.71 78.78"><defs><style>.cls-1{fill:#4dabcf;}.cls-2{fill:#4d77cf;}</style></defs><g id="Layer_2" data-name="Layer 2"><g id="Layer_1-2" data-name="Layer 1"><g id="Layer_1-3" data-name="Layer 1"><path class="cls-1" d="M31.32,16,18.16,9.36,3.72,16.57l13.52,6.79Z"/><path class="cls-1" d="M37.36,19.05l13.8,7L36.84,33.21,23.3,26.41Z"/><path class="cls-1" d="M55.79,9.46,70,16.57,57.29,22.94,43.46,16Z"/><path class="cls-1" d="M49.69,6.4,36.92,0,24.3,6.3l13.15,6.63Z"/><path class="cls-1" d="M39.71,61.36V78.78l15.46-7.72V53.64Z"/><path class="cls-1" d="M55.15,47.55l0-17.24L39.71,38V55.23Z"/><path class="cls-1" d="M73.71,44.33V61.81L60.52,68.39V51Z"/><path class="cls-1" d="M73.71,38.21V21.08L60.5,27.65V44.92Z"/><path class="cls-2" d="M34.25,38,23.84,32.74V55.37S11.1,28.27,9.92,25.83A2.66,2.66,0,0,0,9,25.09c-2.3-1.2-9-4.59-9-4.59v40l9.26,5V44.54S21.86,68.76,22,69s1.39,2.81,2.74,3.71c1.8,1.19,9.52,5.83,9.52,5.83Z"/></g></g></g></svg>